<svg width="14" height="13" viewBox="0 0 14 13" fill="none" xmlns="http://www.w3.org/2000/svg">
<path fill-rule="evenodd" clip-rule="evenodd" d="M8.58472 0.81211C8.11014 0.846615 7.6759 0.925773 7.28175 1.04954C7.16824 1.08518 7.05805 1.12453 6.95118 1.16757C6.864 1.20268 6.77904 1.24025 6.69628 1.28029C6.13474 1.55245 5.57881 1.97539 5.0279 2.54947C4.91963 2.6623 4.81156 2.78096 4.70367 2.90546V1.04954L0.3125 1.04954L0.3125 12.4425H5.0279V6.97119C5.0279 6.68194 5.04174 6.4175 5.0694 6.17783C5.11458 5.78632 5.19665 5.46091 5.31559 5.20148C5.38491 5.05026 5.46677 4.92145 5.56114 4.81504C5.77575 4.57324 6.02957 4.4044 6.3229 4.30857C6.5153 4.24572 6.7247 4.21428 6.95118 4.21428C7.46867 4.21428 7.87028 4.36284 8.15632 4.65965C8.2878 4.79608 8.38892 4.97667 8.45981 5.20148C8.50005 5.32908 8.53055 5.47091 8.55133 5.62701C8.55153 5.62851 8.55173 5.63001 8.55193 5.63152C8.5738 5.79754 8.58472 5.97964 8.58472 6.17783L8.58472 12.4425H13.3236L13.3236 5.20148C13.3236 4.29281 13.1885 3.52749 12.9184 2.90546C12.742 2.49928 12.5081 2.15419 12.2166 1.87019C12.0203 1.67875 11.8039 1.51282 11.5673 1.37239C11.3496 1.24319 11.1149 1.13558 10.863 1.04954C10.3607 0.877898 9.79056 0.792114 9.15279 0.792114C8.95741 0.792114 8.76805 0.79878 8.58472 0.81211Z" fill="white"/>
</svg>
