<svg width="24" height="19" viewBox="0 0 24 19" fill="none" xmlns="http://www.w3.org/2000/svg">
<path fill-rule="evenodd" clip-rule="evenodd" d="M23.3574 0.689786C23.2048 1.10208 23.0028 1.4508 22.7813 1.74366C22.3739 2.28234 21.9008 2.63207 21.5486 2.841C21.4329 2.90967 21.3302 2.96312 21.2472 3.00308C21.2445 3.00437 21.2418 3.00564 21.2392 3.0069C21.2392 3.00691 21.2392 3.00691 21.2392 3.00692C21.2449 3.02025 21.2509 3.03358 21.257 3.0466C21.2573 3.04651 21.2577 3.04643 21.2581 3.04635C21.3389 3.02817 21.4378 3.00589 21.5495 2.98063C22.2762 2.81639 23.5471 2.52634 23.9268 2.42103C23.8917 2.48041 23.856 2.53852 23.8198 2.59535C23.1846 3.59267 22.3957 4.20054 21.9489 4.4909C21.911 4.51552 21.8756 4.53786 21.8429 4.55796C21.8325 4.56435 21.8224 4.5705 21.8126 4.57644C21.7245 4.62971 21.6597 4.66489 21.6251 4.68298C21.6065 4.69272 21.5966 4.69751 21.5966 4.69751C21.5966 4.69751 21.5966 4.69762 21.5967 4.69782C21.5996 4.71165 21.6993 5.18743 21.6323 6.07241C21.6194 6.24278 21.6003 6.42831 21.5731 6.62863C21.549 6.80634 21.5186 6.99569 21.4805 7.19641C21.3551 7.85789 21.1465 8.64291 20.8078 9.54207C20.6896 9.85571 20.5556 10.1832 20.4039 10.5243C20.1476 11.1 19.8327 11.6709 19.4624 12.2259C18.7509 13.2926 17.835 14.3004 16.7385 15.1702C15.5637 16.1021 14.1815 16.8756 12.6211 17.3935C11.6304 17.7222 10.5679 17.9479 9.44095 18.0456C9.30303 18.0576 9.16415 18.0677 9.02432 18.0757C8.30287 18.1174 7.62403 18.116 6.98872 18.0817C6.93656 18.0789 6.88469 18.0758 6.83311 18.0726C6.21441 18.0336 5.638 17.9636 5.10477 17.8726C4.76338 17.8143 4.43969 17.7474 4.13392 17.6744C3.95955 17.6328 3.791 17.5892 3.62833 17.5441C2.29559 17.1749 1.35699 16.7062 0.83586 16.4032C0.516095 16.2172 0.353516 16.0936 0.353516 16.0936C0.556506 16.108 0.754059 16.1181 0.94634 16.1241C2.1702 16.1623 3.18047 16.0358 4.01974 15.8297C4.28172 15.7654 4.52703 15.6934 4.75698 15.6162C5.27861 15.441 5.72116 15.2394 6.09975 15.0415C6.43528 14.8661 6.72057 14.6936 6.96613 14.5451C7.14875 14.4348 7.3094 14.3376 7.45241 14.2625C6.82659 14.1865 6.28603 14.0532 5.81944 13.8829C5.34113 13.7083 4.94055 13.4947 4.60556 13.2638C4.52216 13.2063 4.44283 13.1478 4.36737 13.0885C3.93599 12.7496 3.63133 12.3867 3.41835 12.0625C3.40727 12.0457 3.39643 12.0289 3.38584 12.0122C3.37859 12.0008 3.37146 11.9895 3.36443 11.9782C3.24215 11.7816 3.15394 11.602 3.09146 11.4544C2.98745 11.2086 2.95472 11.0512 2.95472 11.0512C3.11655 11.1153 3.42156 11.1429 3.7665 11.1419C3.86398 11.1416 3.96464 11.139 4.06617 11.1343C4.08619 11.1334 4.10625 11.1324 4.12633 11.1313C4.2852 11.1227 4.44504 11.1089 4.59698 11.0908C4.62502 11.0875 4.65279 11.084 4.68023 11.0803C4.84279 11.0587 4.99397 11.032 5.12217 11.001C5.03821 10.9818 4.95603 10.9613 4.87561 10.9396C4.85896 10.9351 4.84237 10.9306 4.82587 10.926C4.70367 10.892 4.58559 10.8551 4.47148 10.8156C4.44363 10.806 4.41603 10.7962 4.38866 10.7863C4.3693 10.7792 4.35005 10.7721 4.33092 10.7649C4.21192 10.7202 4.09742 10.6727 3.98727 10.6225C3.89356 10.5798 3.803 10.5352 3.71547 10.4889C3.56113 10.4073 3.41624 10.3203 3.28021 10.2291C2.75655 9.8778 2.36425 9.46254 2.07037 9.03952C2.05138 9.0122 2.03281 8.98484 2.01464 8.95747C2.0144 8.95711 2.01417 8.95675 2.01393 8.95639C1.92764 8.82632 1.85042 8.69587 1.78131 8.56665C1.21591 7.50945 1.1939 6.53545 1.1939 6.53545C1.1939 6.53545 2.62949 7.21281 3.44241 7.08751C3.16966 6.8958 2.92865 6.69975 2.7162 6.50104C2.2991 6.11094 1.99205 5.71057 1.77089 5.31259C1.65633 5.10644 1.56481 4.90093 1.49299 4.69782C1.30385 4.16297 1.25125 3.64476 1.27387 3.17529C1.27387 3.17529 1.27387 3.17529 1.27387 3.17529C1.2771 3.10833 1.28185 3.04236 1.28796 2.97747C1.28796 2.97747 1.28796 2.97747 1.28796 2.97747C1.29941 2.85592 1.3156 2.73818 1.33537 2.62485C1.36871 2.43371 1.41223 2.25515 1.46031 2.09209C1.64547 1.46418 1.8983 1.06631 1.8983 1.06631C2.13878 1.30991 2.37998 1.5409 2.62124 1.75994C2.7337 1.86204 2.84618 1.96154 2.95861 2.05851C3.04146 2.12997 3.12428 2.20005 3.20705 2.26879C3.20705 2.26879 3.20706 2.26879 3.20706 2.2688C4.03432 2.95579 4.85618 3.50804 5.6464 3.95187C5.65667 3.95763 5.66692 3.96338 5.67717 3.9691C5.69944 3.98154 5.72167 3.99389 5.74388 4.00616C6.04007 4.16973 6.33163 4.31812 6.61716 4.45274C6.80249 4.54011 6.98528 4.62168 7.16515 4.69782C7.51776 4.8471 7.85914 4.97554 8.18644 5.08603C8.2132 5.09506 8.23987 5.10398 8.26644 5.11278C8.26943 5.11377 8.27242 5.11475 8.27541 5.11574C8.36888 5.14661 8.46116 5.17602 8.55218 5.20403C8.57399 5.21074 8.59572 5.21737 8.61739 5.22393C10.6249 5.83109 12.004 5.75791 12.004 5.75791L12.0275 5.79047C12.0237 5.77666 12.0201 5.76282 12.0164 5.74896C12.0108 5.72735 12.0054 5.70567 12.0001 5.68394C11.923 5.36656 11.8821 5.03658 11.8821 4.69782C11.8821 4.51065 11.8944 4.32615 11.9184 4.14498C11.9184 4.14497 11.9184 4.14496 11.9184 4.14495C12.2127 1.9221 14.2584 0.200684 16.7385 0.200684C17.5567 0.200684 18.3274 0.387932 19.0033 0.718563C19.017 0.725218 19.0305 0.731932 19.0441 0.738703C19.3751 0.904404 19.683 1.10469 19.9621 1.33431C19.9621 1.33432 19.9621 1.33432 19.9621 1.33433C20.0868 1.43695 20.2058 1.54543 20.3184 1.65931L20.3499 1.64318C20.4271 1.63871 20.5033 1.63275 20.5786 1.62544C20.6974 1.6139 20.8137 1.599 20.9273 1.58129C21.1418 1.54787 21.3466 1.50446 21.5397 1.4548C21.7167 1.40928 21.884 1.3585 22.0401 1.30536C22.8501 1.02947 23.3574 0.689786 23.3574 0.689786Z" fill="white"/>
</svg>
