<svg width="25" height="17" viewBox="0 0 25 17" fill="none" xmlns="http://www.w3.org/2000/svg">
<path d="M22.6378 1.61428H16.5208V3.31545H22.6619L22.6378 1.61428ZM21.3468 13.3174C20.8828 13.6249 20.3348 13.7809 19.7784 13.7638C19.4101 13.8022 19.0378 13.7642 18.6849 13.6521C18.3319 13.54 18.0059 13.3562 17.7273 13.1123C17.2121 12.5282 16.9439 11.7669 16.9793 10.9888H24.9664C25.0239 10.1787 24.9547 9.3646 24.7613 8.57583C24.5741 7.82541 24.2466 7.1172 23.796 6.48857C23.3425 5.87881 22.7568 5.37969 22.0828 5.0287C21.3329 4.65895 20.5058 4.47285 19.6698 4.48577C18.8835 4.48001 18.1041 4.6318 17.3774 4.93218C16.712 5.21268 16.1091 5.62282 15.6038 6.13869C15.1 6.66486 14.7098 7.28911 14.4577 7.97258C14.187 8.71042 14.0522 9.49114 14.0595 10.277C14.0471 11.074 14.1779 11.8668 14.4456 12.6176C14.673 13.2975 15.034 13.9251 15.5073 14.4636C15.9971 14.9922 16.599 15.4045 17.2688 15.6701C18.0158 15.9547 18.8102 16.0939 19.6095 16.0803C20.7308 16.1153 21.8379 15.8217 22.7946 15.2358C23.7609 14.5491 24.4566 13.5461 24.7613 12.4005H22.0949C21.9521 12.7795 21.6894 13.1015 21.3468 13.3174ZM17.2085 8.3466C17.3024 8.04579 17.4583 7.76799 17.6661 7.5311C17.8739 7.2942 18.129 7.10347 18.415 6.97118C18.7938 6.80068 19.2063 6.71818 19.6215 6.72987C19.9215 6.70425 20.2234 6.74382 20.5067 6.84587C20.7899 6.94792 21.0477 7.11002 21.2624 7.32106C21.6723 7.82289 21.9354 8.42839 22.0225 9.0705H17.0155C17.035 8.82532 17.0795 8.58276 17.1482 8.3466H17.2085ZM10.8261 7.76747C11.4401 7.51177 11.9737 7.09491 12.3704 6.56096C12.735 5.99391 12.9162 5.32831 12.8892 4.65468C12.9129 4.04037 12.7931 3.429 12.5393 2.86905C12.3261 2.38393 11.9839 1.96661 11.55 1.66254C11.0899 1.3464 10.5674 1.13247 10.0177 1.03515C9.36719 0.898713 8.70367 0.833979 8.03904 0.842112H0.836182V16.02H8.19589C8.86754 16.0205 9.53651 15.9353 10.1866 15.7666C10.8028 15.6072 11.3866 15.3418 11.9119 14.9824C12.4208 14.6297 12.8351 14.1574 13.1184 13.607C13.432 12.9914 13.5855 12.3068 13.5648 11.6162C13.5877 10.7605 13.3477 9.91833 12.8771 9.20322C12.3711 8.48405 11.6206 7.97368 10.7657 7.76747H10.8261ZM4.17821 3.43611H7.30307C7.59015 3.43575 7.87674 3.45997 8.15969 3.5085C8.42024 3.54711 8.67045 3.63735 8.89566 3.77393C9.11325 3.89701 9.28956 4.08172 9.4024 4.30479C9.54213 4.5723 9.60873 4.87197 9.59544 5.17348C9.61792 5.43316 9.57821 5.69447 9.47959 5.93575C9.38098 6.17704 9.22631 6.39136 9.02838 6.56096C8.59659 6.8578 8.07992 7.00603 7.55644 6.98324H4.17821V3.43611ZM10.0177 12.4125C9.89376 12.6584 9.70631 12.8667 9.47478 13.0158C9.23385 13.1656 8.96838 13.2718 8.69055 13.3295C8.38176 13.3986 8.06588 13.431 7.74948 13.426H4.12995V9.26354H7.74948C8.37061 9.23634 8.984 9.40978 9.49892 9.75821C9.73155 9.96697 9.91175 10.2276 10.0249 10.5189C10.1381 10.8103 10.1811 11.1242 10.1504 11.4353C10.1831 11.7669 10.1376 12.1016 10.0177 12.4125Z" fill="white"/>
</svg>
