<svg width="21" height="19" viewBox="0 0 21 19" fill="none" xmlns="http://www.w3.org/2000/svg">
<path d="M17.0045 0.200806L4.25303 0.200806C2.3723 0.200806 0.841919 1.61756 0.841919 3.35935L0.841919 15.2209C0.841919 16.9624 2.37196 18.3795 4.25303 18.3795L17.0042 18.3795C18.8849 18.3795 20.4153 16.9627 20.4153 15.2209V3.35904C20.4153 1.61756 18.8852 0.200806 17.0045 0.200806ZM13.5783 9.2565C13.5783 10.7626 12.2553 11.9877 10.6288 11.9877C9.00226 11.9877 7.67922 10.7626 7.67922 9.2565C7.67922 8.50935 8.00546 7.83199 8.532 7.33854H12.7252C13.2524 7.83199 13.5783 8.50935 13.5783 9.2565ZM14.4334 2.72789L17.4212 2.72789V5.57784H14.4334V2.72789ZM17.0045 16.5183L4.25303 16.5183C3.48031 16.5183 2.85161 15.9362 2.85161 15.2206L2.85161 7.33854L6.12874 7.33854C5.837 7.92317 5.66953 8.57138 5.66953 9.2565C5.66953 11.7889 7.89425 13.8485 10.6288 13.8485C13.3633 13.8485 15.588 11.7885 15.588 9.2565C15.588 8.57138 15.4205 7.92317 15.1288 7.33854H18.4056V15.2206C18.4056 15.9362 17.7769 16.5183 17.0045 16.5183Z" fill="white"/>
</svg>
